<?xml version="1.0" encoding="UTF-8" standalone="no"?>
<!-- Created with Inkscape (http://www.inkscape.org/) -->

<svg
   width="210mm"
   height="297mm"
   viewBox="0 0 210 297"
   version="1.1"
   id="svg5"
   inkscape:export-filename="try2.png"
   inkscape:export-xdpi="4.2760944"
   inkscape:export-ydpi="4.2760944"
   inkscape:version="1.2.2 (b0a8486541, 2022-12-01)"
   sodipodi:docname="drawing.svg"
   xmlns:inkscape="http://www.inkscape.org/namespaces/inkscape"
   xmlns:sodipodi="http://sodipodi.sourceforge.net/DTD/sodipodi-0.dtd"
   xmlns="http://www.w3.org/2000/svg"
   xmlns:svg="http://www.w3.org/2000/svg">
  <sodipodi:namedview
     id="namedview7"
     pagecolor="#ffffff"
     bordercolor="#000000"
     borderopacity="0.25"
     inkscape:showpageshadow="2"
     inkscape:pageopacity="0.0"
     inkscape:pagecheckerboard="0"
     inkscape:deskcolor="#d1d1d1"
     inkscape:document-units="mm"
     showgrid="false"
     inkscape:zoom="0.5"
     inkscape:cx="95"
     inkscape:cy="565"
     inkscape:window-width="1916"
     inkscape:window-height="1052"
     inkscape:window-x="0"
     inkscape:window-y="24"
     inkscape:window-maximized="1"
     inkscape:current-layer="layer1" />
  <defs
     id="defs2">
    <rect
       x="337.36447"
       y="410.02334"
       width="262.62176"
       height="113.51244"
       id="rect221" />
  </defs>
  <g
     inkscape:label="Layer 1"
     inkscape:groupmode="layer"
     id="layer1"
     inkscape:export-filename="layer1.png"
     inkscape:export-xdpi="34.684589"
     inkscape:export-ydpi="34.684589">
    <path
       style="fill:#ffcc00;stroke-width:0.264583"
       id="path159"
       d="m 58.117578,95.484065 c -0.235477,0.975016 -0.505328,1.941034 -0.763656,2.910067 -0.143074,0.584357 -0.325581,1.157526 -0.510554,1.729588 -0.251864,0.74817 -0.556474,1.47627 -0.868695,2.20079 -0.596136,1.25178 -1.214927,2.49394 -1.870898,3.71556 -0.640774,1.15884 -1.397731,2.25027 -2.191899,3.30835 -0.533744,0.66774 -1.083881,1.32306 -1.64742,1.96595 -0.560527,0.60187 -1.080547,1.23955 -1.642078,1.84032 -0.568224,0.62552 -1.170241,1.21855 -1.778701,1.8046 -0.52619,0.51058 -1.096677,0.96876 -1.657165,1.44003 -0.614471,0.49757 -1.253794,0.96285 -1.878878,1.4471 -0.728919,0.5741 -1.466381,1.13491 -2.224783,1.66966 -0.722696,0.50954 -1.486776,0.95354 -2.242693,1.41029 -0.760502,0.46561 -1.529522,0.91714 -2.284246,1.39238 -0.493569,0.33218 -1.017365,0.61552 -1.536409,0.90503 0,0 3.314679,2.15728 3.314679,2.15728 v 0 c 0.521264,-0.2974 1.046372,-0.58946 1.547614,-0.92017 0.753409,-0.47272 1.518232,-0.92608 2.279036,-1.38663 0.764609,-0.45841 1.527829,-0.91976 2.254605,-1.43737 0.76136,-0.54047 1.499621,-1.11052 2.239222,-1.68018 0.630766,-0.4859 1.275828,-0.95322 1.892853,-1.4566 0.568965,-0.47391 1.134573,-0.95019 1.664842,-1.46801 0.612746,-0.59129 1.21833,-1.18984 1.786184,-1.82497 0.563446,-0.60713 1.096685,-1.24158 1.664658,-1.84478 0.55694,-0.65889 1.104942,-1.32612 1.635432,-2.0064 0.793382,-1.08132 1.563878,-2.1864 2.213467,-3.36112 0.665956,-1.22801 1.268978,-2.48944 1.889313,-3.74087 0.329943,-0.72983 0.666998,-1.45757 0.925808,-2.21662 0.185055,-0.58106 0.36276,-1.16466 0.507924,-1.75717 0.242445,-0.970764 0.49304,-1.940013 0.760634,-2.904093 0,0 -3.478196,-1.892012 -3.478196,-1.892012 z" />
    <path
       style="fill:#ffcc00;stroke-width:0.264583"
       id="path161"
       d="m 59.385718,97.404416 c 0.07291,1.300861 0.215532,2.594417 0.371448,3.887334 0.07653,0.65032 0.18491,1.29367 0.347107,1.92786 0.122553,0.45684 0.256583,0.91028 0.367231,1.37019 0.09772,0.4168 0.1924,0.83424 0.303549,1.2477 0.100497,0.36522 0.20619,0.72844 0.319061,1.09007 0.155025,0.57207 0.315206,1.1426 0.476033,1.71313 0.192259,0.63345 0.383953,1.26739 0.593595,1.89535 0.136806,0.37816 0.292913,0.74893 0.432575,1.12602 0.142558,0.35669 0.336828,0.68904 0.494425,1.03906 0.08616,0.22974 0.188214,0.44902 0.317783,0.65735 0.02902,0.0404 0.05804,0.0809 0.08705,0.12134 0,0 3.664717,1.56484 3.664717,1.56484 v 0 c -0.0311,-0.0344 -0.06221,-0.0688 -0.09331,-0.10318 -0.149876,-0.17481 -0.275643,-0.35905 -0.359539,-0.57485 -0.139333,-0.35672 -0.315177,-0.69459 -0.4943,-1.03227 -0.159663,-0.36804 -0.284123,-0.75121 -0.453139,-1.11542 -0.225367,-0.61908 -0.407006,-1.25265 -0.615323,-1.87754 -0.156088,-0.56783 -0.314399,-1.13484 -0.456411,-1.70616 -0.09521,-0.36901 -0.234379,-0.7238 -0.316495,-1.09644 -0.1363,-0.4007 -0.221877,-0.81692 -0.312388,-1.22975 -0.118959,-0.46253 -0.230484,-0.92615 -0.37383,-1.3823 -0.177332,-0.62002 -0.293558,-1.25236 -0.391594,-1.88955 -0.174773,-1.27864 -0.344368,-2.55859 -0.374576,-3.850865 0,0 -3.533674,-1.781919 -3.533674,-1.781919 z" />
    <path
       style="fill:#ffcc00;stroke-width:0.264583"
       id="path163"
       d="m 72.882143,101.8839 c -0.860843,0.75103 -1.625066,1.58762 -2.333776,2.48071 -0.445934,0.61096 -0.833578,1.26293 -1.214557,1.91578 -0.23664,0.45326 -0.498112,0.89104 -0.77208,1.32237 -0.351055,0.50736 -0.682183,1.02717 -1.03169,1.53544 -0.233212,0.34854 -0.500764,0.67136 -0.739394,1.01592 -0.190151,0.29296 -0.449374,0.52293 -0.714783,0.7448 -0.295859,0.18312 -0.56013,0.41137 -0.846687,0.60666 -0.168762,0.11002 -0.308274,0.26995 -0.480164,0.37307 -0.176921,0.14135 -0.349112,0.28814 -0.514622,0.44289 -0.112086,0.0773 -0.05427,0.0371 -0.173363,0.12085 0,0 3.36727,2.13582 3.36727,2.13582 v 0 c 0.133403,-0.10073 0.06763,-0.048 0.197168,-0.15829 0.159093,-0.14275 0.32263,-0.28141 0.496485,-0.40595 0.152238,-0.12974 0.312208,-0.25021 0.470442,-0.37249 0.283636,-0.21524 0.574823,-0.41958 0.857123,-0.63648 0.289235,-0.24773 0.566365,-0.5096 0.773893,-0.83229 0.237107,-0.34591 0.50192,-0.67168 0.730068,-1.02397 0.34695,-0.51463 0.68155,-1.03705 1.036695,-1.54624 0.279236,-0.4356 0.552151,-0.87477 0.784659,-1.33772 0.358405,-0.64282 0.730602,-1.28146 1.163712,-1.8772 0.688999,-0.87979 1.434343,-1.70622 2.306722,-2.41121 0,0 -3.363121,-2.09247 -3.363121,-2.09247 z" />
    <path
       style="fill:#ffcc00;stroke-width:0.264583"
       id="path165"
       d="m 72.464016,104.10366 c 0.225925,1.24053 0.32916,2.4984 0.450707,3.75218 0.105035,1.03312 0.160661,2.06918 0.107503,3.10652 -0.075,1.21358 -0.235283,2.41957 -0.352075,3.62941 -0.08387,0.78816 -0.12077,1.57971 -0.173223,2.37009 -0.06268,0.71718 -0.09622,1.43609 -0.115467,2.1556 -0.01632,0.79306 -0.01397,1.58634 -0.01603,2.37953 -0.0098,0.71662 0.04914,1.43152 0.09173,2.14629 0.0089,0.43566 0.06243,0.86754 0.114487,1.29958 0.0568,0.51378 0.121709,1.02591 0.218417,1.53378 0.08314,0.43852 0.2057,0.86512 0.376705,1.27706 0.134091,0.28874 0.273088,0.57598 0.439733,0.8475 0.203078,0.29165 0.48324,0.52602 0.76205,0.74366 1.31337,1.09563 2.880934,1.90666 4.492384,2.47174 0.318757,0.0951 0.644496,0.16665 0.971481,0.22942 0.22778,0.0435 0.458931,0.056 0.690245,0.0534 0.181748,-0.001 0.363498,-0.002 0.545248,-0.003 0.02368,-6e-5 0.04739,-1.3e-4 0.07108,-2e-4 0,0 -3.230917,-2.34549 -3.230917,-2.34549 v 0 c -0.02357,1.1e-4 -0.04716,2.3e-4 -0.07074,2.6e-4 -0.177774,5.3e-4 -0.355724,0.002 -0.533262,-0.009 -0.21703,-0.0195 -0.432184,-0.0539 -0.644015,-0.10575 -0.314962,-0.0757 -0.632105,-0.14397 -0.931201,-0.27241 -0.198916,-0.0801 -0.397499,-0.156 -0.5886,-0.25392 -0.06004,-0.0308 -0.236426,-0.13001 -0.178152,-0.096 3.215503,1.87522 4.378323,2.4297 3.101764,1.81589 -0.262314,-0.21958 -0.539962,-0.42174 -0.800968,-0.6438 -0.198768,-0.23592 -0.341778,-0.50842 -0.476115,-0.78516 -0.201764,-0.37476 -0.329856,-0.77252 -0.418407,-1.18834 -0.102426,-0.49972 -0.193995,-1.00076 -0.2383,-1.50972 -0.05024,-0.42563 -0.09822,-0.85166 -0.123137,-1.27947 -0.04814,-0.70901 -0.125018,-1.41799 -0.114609,-2.12933 -0.0013,-0.78993 6.1e-5,-1.57994 0.01392,-2.36978 0.01643,-0.71223 0.0419,-1.42456 0.112093,-2.13388 0.06992,-0.79118 0.0525,-1.58906 0.141007,-2.37952 0.111482,-1.21347 0.275162,-2.42162 0.366054,-3.637 0.07347,-1.05626 0.03056,-2.11285 -0.08485,-3.1655 -0.127675,-1.25598 -0.240234,-2.51403 -0.420862,-3.76388 0,0 -3.555667,-1.74105 -3.555667,-1.74105 z" />
    <text
       xml:space="preserve"
       transform="matrix(0.26458333,0,0,0.26458333,-9.4100589,-1.3447052)"
       id="text219"
       style="font-size:74.6667px;white-space:pre;shape-inside:url(#rect221);fill:#000000;-inkscape-font-specification:sans-serif;font-family:sans-serif;font-weight:normal;font-style:normal;font-stretch:normal;font-variant:normal"><tspan
         x="337.36523"
         y="477.96082"
         id="tspan426">aze</tspan></text>
  </g>
</svg>
